<svg xmlns="http://www.w3.org/2000/svg" xmlns:xlink="http://www.w3.org/1999/xlink" preserveAspectRatio="xMidYMid" width="23" height="18.031" viewBox="0 0 23 18.031">
  <defs>
    <style>
      .cls-1 {
        fill: #fff;
        fill-rule: evenodd;
      }
    </style>
  </defs>
  <path d="M22.911,9.405 C22.861,9.534 22.787,9.656 22.683,9.761 L14.731,17.712 C14.331,18.113 13.684,18.113 13.285,17.712 C12.886,17.314 12.886,16.667 13.285,16.268 L19.552,10.000 L1.000,10.000 C0.448,10.000 -0.000,9.552 -0.000,9.000 C-0.000,8.448 0.448,8.000 1.000,8.000 L19.556,8.000 L13.285,1.728 C12.886,1.329 12.886,0.682 13.285,0.283 C13.684,-0.116 14.331,-0.116 14.731,0.283 L22.683,8.235 C22.789,8.341 22.862,8.465 22.912,8.597 C22.967,8.720 23.000,8.856 23.000,9.000 C23.000,9.145 22.966,9.281 22.911,9.405 Z" class="cls-1"/>
</svg>
