<svg xmlns="http://www.w3.org/2000/svg" xmlns:xlink="http://www.w3.org/1999/xlink" preserveAspectRatio="xMidYMid" width="23" height="18" viewBox="0 0 23 18">
  <defs>
    <style>
      .cls-1 {
        fill: #fff;
        fill-rule: evenodd;
      }
    </style>
  </defs>
  <path d="M22.016,9.969 L3.434,9.969 L9.715,16.239 C10.114,16.637 10.114,17.283 9.715,17.682 C9.315,18.081 8.668,18.081 8.269,17.682 L0.317,9.744 C0.211,9.638 0.137,9.514 0.088,9.383 C0.033,9.261 -0.000,9.127 -0.000,8.984 C-0.000,8.843 0.032,8.709 0.086,8.588 C0.136,8.454 0.209,8.328 0.317,8.221 L8.269,0.283 C8.668,-0.117 9.315,-0.117 9.715,0.283 C10.114,0.680 10.114,1.328 9.715,1.726 L3.430,8.000 L22.016,8.000 C22.559,8.000 23.000,8.441 23.000,8.984 C23.000,9.528 22.559,9.969 22.016,9.969 Z" class="cls-1"/>
</svg>
