<?xml version="1.0" encoding="utf-8"?>
<!-- Generator: Adobe Illustrator 21.1.0, SVG Export Plug-In . SVG Version: 6.00 Build 0)  -->
<svg version="1.1" id="Layer_1" xmlns="http://www.w3.org/2000/svg" xmlns:xlink="http://www.w3.org/1999/xlink" x="0px" y="0px"
	 viewBox="0 0 87.1 87.2" style="enable-background:new 0 0 87.1 87.2;" xml:space="preserve">
<style type="text/css">
	.st0{fill:#818181;}
</style>
<path class="st0" d="M60,65.4L59.2,66c-6.5,5-14.2,7.6-22.4,7.6c-9.8,0-19.1-3.8-26-10.8c-7-7-10.8-16.2-10.8-26s3.8-19.1,10.8-26
	C17.7,3.8,27,0,36.8,0s19.1,3.8,26,10.8c13,13,14.4,33.8,3.2,48.4L65.4,60l21.7,21.7l-5.5,5.5L60,65.4z M36.8,7.8
	c-7.8,0-15.1,3-20.6,8.5c-5.4,5.5-8.4,12.8-8.4,20.5c0,7.8,3,15.1,8.5,20.6s12.8,8.5,20.6,8.5s15.1-3,20.6-8.5
	c11.3-11.3,11.3-29.8,0-41.1C51.9,10.8,44.6,7.8,36.8,7.8z"/>
</svg>
